<mxfile host="app.diagrams.net" agent="Mozilla/5.0 (Windows NT 10.0; Win64; x64) AppleWebKit/537.36 (KHTML, like Gecko) Chrome/141.0.0.0 Safari/537.36 Edg/141.0.0.0" version="28.2.7">
  <diagram name="第 1 页" id="3qt8ViiU84j2nWul-FF2">
    <mxGraphModel dx="1418" dy="794" grid="1" gridSize="10" guides="1" tooltips="1" connect="1" arrows="1" fold="1" page="1" pageScale="1" pageWidth="827" pageHeight="1169" math="0" shadow="0">
      <root>
        <mxCell id="0" />
        <mxCell id="1" parent="0" />
        <mxCell id="1BXJhmm4JA-MKgftrJVp-1" value="" style="rounded=1;whiteSpace=wrap;html=1;" vertex="1" parent="1">
          <mxGeometry x="230" y="250" width="710" height="50" as="geometry" />
        </mxCell>
        <mxCell id="1BXJhmm4JA-MKgftrJVp-2" value="&lt;font style=&quot;font-size: 18px;&quot;&gt;param_1&lt;/font&gt;" style="rounded=1;whiteSpace=wrap;html=1;strokeWidth=2;fillWeight=4;hachureGap=8;hachureAngle=45;fillColor=#fff2cc;sketch=1;strokeColor=#d6b656;" vertex="1" parent="1">
          <mxGeometry x="230" y="250" width="430" height="50" as="geometry" />
        </mxCell>
        <mxCell id="1BXJhmm4JA-MKgftrJVp-3" value="&lt;font style=&quot;font-size: 18px;&quot;&gt;param_2&lt;/font&gt;" style="rounded=1;whiteSpace=wrap;html=1;strokeWidth=2;fillWeight=4;hachureGap=8;hachureAngle=45;fillColor=#fff2cc;sketch=1;strokeColor=#d6b656;" vertex="1" parent="1">
          <mxGeometry x="660" y="250" width="280" height="50" as="geometry" />
        </mxCell>
        <mxCell id="1BXJhmm4JA-MKgftrJVp-4" value="" style="rounded=1;whiteSpace=wrap;html=1;" vertex="1" parent="1">
          <mxGeometry x="230" y="300" width="710" height="50" as="geometry" />
        </mxCell>
        <mxCell id="1BXJhmm4JA-MKgftrJVp-5" value="" style="endArrow=none;html=1;rounded=0;entryX=0.928;entryY=0.02;entryDx=0;entryDy=0;entryPerimeter=0;exitX=0.549;exitY=1;exitDx=0;exitDy=0;exitPerimeter=0;strokeWidth=4;strokeColor=#FF0A0A;" edge="1" parent="1">
          <mxGeometry width="50" height="50" relative="1" as="geometry">
            <mxPoint x="610" y="350" as="sourcePoint" />
            <mxPoint x="610.94" y="250" as="targetPoint" />
          </mxGeometry>
        </mxCell>
        <mxCell id="1BXJhmm4JA-MKgftrJVp-6" value="&lt;font style=&quot;font-size: 18px;&quot;&gt;param_2&lt;/font&gt;" style="rounded=1;whiteSpace=wrap;html=1;strokeWidth=2;fillWeight=4;hachureGap=8;hachureAngle=45;fillColor=#fff2cc;sketch=1;strokeColor=#d6b656;" vertex="1" parent="1">
          <mxGeometry x="230" y="300" width="80" height="50" as="geometry" />
        </mxCell>
        <mxCell id="1BXJhmm4JA-MKgftrJVp-7" value="&lt;span style=&quot;font-size: 18px;&quot;&gt;&lt;b&gt;内存块1&lt;/b&gt;&lt;/span&gt;" style="text;html=1;whiteSpace=wrap;strokeColor=none;fillColor=none;align=center;verticalAlign=middle;rounded=0;" vertex="1" parent="1">
          <mxGeometry x="130" y="260" width="80" height="30" as="geometry" />
        </mxCell>
        <mxCell id="1BXJhmm4JA-MKgftrJVp-8" value="&lt;span style=&quot;font-size: 18px;&quot;&gt;&lt;b&gt;内存块2&lt;/b&gt;&lt;/span&gt;" style="text;html=1;whiteSpace=wrap;strokeColor=none;fillColor=none;align=center;verticalAlign=middle;rounded=0;" vertex="1" parent="1">
          <mxGeometry x="130" y="310" width="80" height="30" as="geometry" />
        </mxCell>
        <mxCell id="1BXJhmm4JA-MKgftrJVp-9" value="" style="rounded=1;whiteSpace=wrap;html=1;" vertex="1" parent="1">
          <mxGeometry x="230" y="460" width="710" height="50" as="geometry" />
        </mxCell>
        <mxCell id="1BXJhmm4JA-MKgftrJVp-10" value="&lt;font style=&quot;font-size: 18px;&quot;&gt;param_1&lt;/font&gt;" style="rounded=1;whiteSpace=wrap;html=1;strokeWidth=2;fillWeight=4;hachureGap=8;hachureAngle=45;fillColor=#fff2cc;sketch=1;strokeColor=#d6b656;" vertex="1" parent="1">
          <mxGeometry x="230" y="460" width="430" height="50" as="geometry" />
        </mxCell>
        <mxCell id="1BXJhmm4JA-MKgftrJVp-11" value="&lt;font style=&quot;font-size: 18px;&quot;&gt;padding&lt;/font&gt;" style="rounded=1;whiteSpace=wrap;html=1;strokeWidth=2;fillWeight=4;hachureGap=8;hachureAngle=45;fillColor=#e1d5e7;sketch=1;strokeColor=#9673a6;" vertex="1" parent="1">
          <mxGeometry x="660" y="460" width="280" height="50" as="geometry" />
        </mxCell>
        <mxCell id="1BXJhmm4JA-MKgftrJVp-12" value="" style="rounded=1;whiteSpace=wrap;html=1;" vertex="1" parent="1">
          <mxGeometry x="230" y="510" width="710" height="50" as="geometry" />
        </mxCell>
        <mxCell id="1BXJhmm4JA-MKgftrJVp-13" value="&lt;font style=&quot;font-size: 18px;&quot;&gt;param_2&lt;/font&gt;" style="rounded=1;whiteSpace=wrap;html=1;strokeWidth=2;fillWeight=4;hachureGap=8;hachureAngle=45;fillColor=#fff2cc;sketch=1;strokeColor=#d6b656;" vertex="1" parent="1">
          <mxGeometry x="230" y="510" width="300" height="50" as="geometry" />
        </mxCell>
        <mxCell id="1BXJhmm4JA-MKgftrJVp-14" value="&lt;span style=&quot;font-size: 18px;&quot;&gt;&lt;b&gt;内存块1&lt;/b&gt;&lt;/span&gt;" style="text;html=1;whiteSpace=wrap;strokeColor=none;fillColor=none;align=center;verticalAlign=middle;rounded=0;" vertex="1" parent="1">
          <mxGeometry x="130" y="470" width="80" height="30" as="geometry" />
        </mxCell>
        <mxCell id="1BXJhmm4JA-MKgftrJVp-15" value="&lt;span style=&quot;font-size: 18px;&quot;&gt;&lt;b&gt;内存块2&lt;/b&gt;&lt;/span&gt;" style="text;html=1;whiteSpace=wrap;strokeColor=none;fillColor=none;align=center;verticalAlign=middle;rounded=0;" vertex="1" parent="1">
          <mxGeometry x="130" y="520" width="80" height="30" as="geometry" />
        </mxCell>
        <mxCell id="1BXJhmm4JA-MKgftrJVp-16" value="&lt;font style=&quot;font-size: 18px;&quot;&gt;padding&lt;/font&gt;" style="rounded=1;whiteSpace=wrap;html=1;strokeWidth=2;fillWeight=4;hachureGap=8;hachureAngle=45;fillColor=#e1d5e7;sketch=1;strokeColor=#9673a6;" vertex="1" parent="1">
          <mxGeometry x="530" y="510" width="80" height="50" as="geometry" />
        </mxCell>
        <mxCell id="1BXJhmm4JA-MKgftrJVp-17" value="" style="endArrow=none;html=1;rounded=0;entryX=0.928;entryY=0.02;entryDx=0;entryDy=0;entryPerimeter=0;exitX=0.549;exitY=1;exitDx=0;exitDy=0;exitPerimeter=0;strokeWidth=4;strokeColor=#FF0A0A;" edge="1" parent="1">
          <mxGeometry width="50" height="50" relative="1" as="geometry">
            <mxPoint x="610" y="560" as="sourcePoint" />
            <mxPoint x="610.94" y="460" as="targetPoint" />
          </mxGeometry>
        </mxCell>
        <mxCell id="1BXJhmm4JA-MKgftrJVp-18" value="&lt;span style=&quot;color: rgb(17, 17, 17); font-family: Arial, Helvetica, sans-serif; font-size: 28px; text-align: start; white-space-collapse: preserve;&quot;&gt;&lt;b&gt;Memory alignment&lt;/b&gt;&lt;/span&gt;" style="text;html=1;whiteSpace=wrap;strokeColor=none;fillColor=none;align=center;verticalAlign=middle;rounded=0;" vertex="1" parent="1">
          <mxGeometry x="405" y="610" width="360" height="30" as="geometry" />
        </mxCell>
        <mxCell id="1BXJhmm4JA-MKgftrJVp-19" value="&lt;span style=&quot;color: rgb(17, 17, 17); font-family: Arial, Helvetica, sans-serif; font-size: 28px; text-align: start; white-space-collapse: preserve;&quot;&gt;&lt;b&gt;Non-memory alignment&lt;/b&gt;&lt;/span&gt;" style="text;html=1;whiteSpace=wrap;strokeColor=none;fillColor=none;align=center;verticalAlign=middle;rounded=0;" vertex="1" parent="1">
          <mxGeometry x="414" y="370" width="360" height="30" as="geometry" />
        </mxCell>
      </root>
    </mxGraphModel>
  </diagram>
</mxfile>
